<svg
  xmlns="http://www.w3.org/2000/svg"
  xmlns:xlink="http://www.w3.org/1999/xlink"
  width="117px" height="72px">
  <path fill-rule="evenodd" fill="rgb(49, 231, 139)"
    d="M116.882,46.642 L116.882,65.713 C116.882,69.185 114.071,72.010 110.617,72.010 L6.252,72.010 C2.804,72.010 -0.000,69.185 -0.000,65.713 L-0.000,46.643 L3.650,43.689 L3.650,29.518 L-0.000,26.563 L-0.000,7.226 C-0.000,3.755 2.804,0.929 6.252,0.929 L110.617,0.929 C114.071,0.929 116.882,3.755 116.882,7.226 L116.882,26.551 L113.220,29.518 L113.220,43.687 L116.882,46.642 ZM114.472,25.392 L114.472,7.226 C114.472,5.089 112.743,3.351 110.617,3.351 L6.252,3.351 C4.133,3.351 2.409,5.089 2.409,7.226 L2.409,25.404 L6.059,28.359 L6.059,44.848 L2.409,47.802 L2.409,65.713 C2.409,67.850 4.133,69.589 6.252,69.589 L110.617,69.589 C112.743,69.589 114.472,67.850 114.472,65.713 L114.472,47.804 L110.810,44.849 L110.810,28.359 L114.472,25.392 ZM79.716,36.447 L23.523,36.447 L35.201,48.184 L33.497,49.896 L18.911,35.236 L32.774,21.302 L34.478,23.015 L23.523,34.025 L80.782,34.025 L95.235,50.008 L93.453,51.638 L79.716,36.447 Z" />
</svg>