<svg
  xmlns="http://www.w3.org/2000/svg"
  xmlns:xlink="http://www.w3.org/1999/xlink"
  width="118px" height="72px">
  <path fill-rule="evenodd" fill="rgb(49, 231, 139)"
    d="M117.734,46.643 L117.734,65.713 C117.734,69.185 114.929,72.010 111.481,72.010 L7.116,72.010 C3.662,72.010 0.851,69.185 0.851,65.713 L0.851,46.642 L4.514,43.687 L4.514,29.518 L0.851,26.551 L0.851,7.226 C0.851,3.755 3.662,0.929 7.116,0.929 L111.481,0.929 C114.929,0.929 117.734,3.755 117.734,7.226 L117.734,26.563 L114.084,29.518 L114.084,43.689 L117.734,46.643 ZM115.324,25.404 L115.324,7.226 C115.324,5.089 113.600,3.351 111.481,3.351 L7.116,3.351 C4.990,3.351 3.261,5.089 3.261,7.226 L3.261,25.392 L6.923,28.359 L6.923,44.849 L3.261,47.804 L3.261,65.713 C3.261,67.850 4.990,69.589 7.116,69.589 L111.481,69.589 C113.600,69.589 115.324,67.850 115.324,65.713 L115.324,47.802 L111.674,44.848 L111.674,28.359 L115.324,25.404 ZM82.533,48.184 L94.210,36.447 L38.018,36.447 L24.281,51.638 L22.498,50.008 L36.952,34.025 L94.210,34.025 L83.256,23.015 L84.959,21.302 L98.822,35.236 L84.236,49.896 L82.533,48.184 Z" />
</svg>