<svg
  xmlns="http://www.w3.org/2000/svg"
  xmlns:xlink="http://www.w3.org/1999/xlink"
  width="321px" height="73px">
  <path fill-rule="evenodd" fill="rgb(255, 255, 255)"
    d="M291.119,32.721 C290.033,32.721 289.087,31.942 289.087,30.688 C289.087,29.435 290.033,28.655 291.119,28.655 C292.204,28.628 293.151,29.407 293.151,30.688 C293.151,31.942 292.204,32.721 291.119,32.721 ZM291.119,28.990 C290.200,28.961 289.421,29.630 289.421,30.688 C289.421,31.747 290.172,32.415 291.119,32.415 C292.037,32.415 292.817,31.747 292.817,30.688 C292.817,29.630 292.065,28.990 291.119,28.990 ZM291.954,31.663 L291.564,31.663 L291.174,30.883 L290.757,30.883 L290.757,31.663 L290.423,31.663 L290.423,29.658 L291.147,29.658 L291.147,29.630 C291.675,29.630 291.842,29.909 291.842,30.215 C291.842,30.493 291.675,30.688 291.481,30.772 L291.954,31.663 ZM291.119,29.937 L290.757,29.937 L290.757,30.577 L291.119,30.577 C291.341,30.577 291.481,30.438 291.481,30.243 C291.481,30.048 291.369,29.937 291.119,29.937 ZM284.271,34.504 L280.262,43.082 L278.508,43.082 L274.583,34.588 L274.583,43.500 L271.633,43.500 L271.633,28.823 L274.556,28.823 L279.483,39.433 L284.243,28.823 L287.221,28.823 L287.221,43.500 L284.271,43.500 L284.271,34.504 ZM264.144,40.659 L258.438,40.659 L257.463,43.500 L254.234,43.500 L259.746,28.823 L262.836,28.823 L268.487,43.500 L265.147,43.500 L264.144,40.659 ZM261.277,32.332 L259.273,38.208 L263.337,38.208 L261.277,32.332 ZM241.708,28.823 L251.590,28.823 L251.590,31.468 L244.770,31.468 L244.770,34.755 L250.643,34.755 L250.643,37.401 L244.770,37.401 L244.770,40.854 L251.590,40.854 L251.590,43.500 L241.708,43.500 L241.708,28.823 ZM233.858,43.500 L230.796,43.500 L230.796,31.468 L226.342,31.468 L226.342,28.823 L238.312,28.823 L238.312,31.468 L233.858,31.468 L233.858,43.500 ZM224.059,39.071 C224.059,42.052 221.721,43.751 218.324,43.751 C216.682,43.751 214.678,43.333 213.175,42.386 L214.121,39.851 C215.374,40.520 216.849,40.882 218.157,40.882 C219.939,40.882 220.802,40.213 220.802,39.238 C220.802,38.125 219.521,37.790 217.434,37.094 C215.068,36.286 213.397,35.256 213.397,32.833 C213.397,30.104 215.569,28.544 218.714,28.544 C220.913,28.572 222.695,29.268 223.669,30.020 L222.361,32.304 C221.359,31.607 219.995,31.189 218.798,31.189 C217.434,31.189 216.599,31.747 216.599,32.750 C216.599,33.975 218.102,34.253 220.301,35.061 C222.695,35.896 224.059,36.899 224.059,39.071 ZM189.819,26.232 C192.519,26.232 194.719,28.432 194.719,31.135 C194.719,33.836 192.519,36.036 189.819,36.036 C187.119,36.036 184.920,33.836 184.920,31.135 C184.920,28.432 187.119,26.232 189.819,26.232 ZM189.847,34.811 C191.879,34.811 193.522,33.167 193.522,31.135 C193.522,29.101 191.879,27.458 189.847,27.458 C187.815,27.458 186.172,29.101 186.172,31.135 C186.172,33.167 187.815,34.811 189.847,34.811 ZM176.096,39.573 C177.042,39.211 178.128,39.211 179.130,39.629 C180.132,40.074 180.939,40.854 181.357,41.884 C181.774,42.915 181.774,44.029 181.357,45.059 C180.494,47.176 178.072,48.151 175.956,47.288 C174.982,46.870 174.230,46.145 173.813,45.255 L176.207,46.229 C177.766,46.898 179.547,46.145 180.215,44.586 C180.856,43.026 180.132,41.244 178.573,40.604 L176.096,39.573 ZM183.417,55.643 C174.509,55.643 166.993,49.655 164.682,41.467 L172.143,44.558 C172.644,47.093 174.871,48.986 177.543,48.986 C180.577,48.986 183.055,46.508 183.055,43.472 C183.055,43.388 183.055,43.305 183.055,43.221 L189.680,38.486 C189.736,38.486 189.791,38.486 189.847,38.486 C193.911,38.486 197.196,35.173 197.196,31.135 C197.196,27.067 193.883,23.782 189.847,23.782 C185.783,23.782 182.498,27.096 182.498,31.135 C182.498,31.162 182.498,31.189 182.498,31.218 L177.849,37.958 C177.738,37.958 177.654,37.958 177.543,37.958 C176.402,37.958 175.344,38.292 174.453,38.904 L164.014,34.588 C164.821,24.561 173.200,16.679 183.417,16.679 C194.162,16.679 202.875,25.397 202.875,36.175 C202.875,46.925 194.162,55.643 183.417,55.643 Z" />
  <path fill-rule="evenodd" stroke="rgb(255, 255, 255)" stroke-width="2px" stroke-linecap="butt"
    stroke-linejoin="miter" fill="none"
    d="M315.021,28.416 L315.021,44.172 L317.120,46.271 L317.120,59.975 C317.120,65.234 312.850,69.515 307.579,69.515 L12.268,69.515 C7.008,69.515 2.727,65.234 2.727,59.975 L2.727,46.223 L4.778,44.172 L4.778,28.416 L2.727,26.365 L2.727,12.267 C2.727,6.996 7.008,2.726 12.268,2.726 L307.579,2.726 C312.850,2.726 317.120,6.996 317.120,12.267 L317.120,26.317 L315.021,28.416 Z" />
</svg>