<svg
  xmlns="http://www.w3.org/2000/svg"
  xmlns:xlink="http://www.w3.org/1999/xlink"
  width="512px" height="93px">
  <path fill-rule="evenodd" stroke="rgb(49, 231, 139)" stroke-width="2px" stroke-linecap="butt"
    stroke-linejoin="miter" fill="none"
    d="M505.978,35.655 L505.978,56.147 L508.708,58.878 L508.708,76.701 C508.708,83.542 503.154,89.111 496.298,89.111 L15.302,89.111 C8.461,89.111 2.892,83.542 2.892,76.701 L2.892,58.815 L5.561,56.147 L5.561,35.655 L2.892,32.987 L2.892,14.650 C2.892,7.794 8.461,2.241 15.302,2.241 L496.298,2.241 C503.154,2.241 508.708,7.794 508.708,14.650 L508.708,32.925 L505.978,35.655 Z" />
  <path fill-rule="evenodd" fill="rgb(49, 231, 139)"
    d="M91.092,25.071 C98.403,35.821 102.013,47.946 100.664,61.906 C100.658,61.965 100.627,62.019 100.579,62.054 C95.042,66.120 89.679,68.588 84.390,70.224 C84.306,70.249 84.214,70.218 84.163,70.147 C82.941,68.447 81.830,66.654 80.858,64.772 C80.802,64.661 80.853,64.527 80.968,64.484 C82.731,63.820 84.408,63.023 86.020,62.080 C86.147,62.006 86.155,61.824 86.038,61.737 C85.696,61.482 85.357,61.215 85.032,60.948 C84.972,60.899 84.890,60.889 84.821,60.923 C74.351,65.757 62.883,65.757 52.289,60.923 C52.220,60.891 52.138,60.902 52.079,60.950 C51.756,61.217 51.416,61.482 51.077,61.737 C50.959,61.824 50.969,62.006 51.097,62.080 C52.710,63.005 54.386,63.820 56.147,64.487 C56.261,64.531 56.315,64.661 56.259,64.772 C55.307,66.656 54.197,68.449 52.952,70.149 C52.898,70.218 52.809,70.250 52.725,70.224 C47.461,68.588 42.098,66.120 36.561,62.054 C36.515,62.019 36.482,61.962 36.477,61.903 C35.349,49.828 37.648,37.603 46.040,25.069 C46.060,25.036 46.091,25.010 46.126,24.995 C50.256,23.099 54.679,21.705 59.303,20.908 C59.387,20.895 59.471,20.935 59.515,21.009 C60.086,22.020 60.739,23.318 61.181,24.378 C66.054,23.633 71.004,23.633 75.979,24.378 C76.421,23.340 77.052,22.020 77.620,21.009 C77.662,20.933 77.748,20.893 77.833,20.908 C82.458,21.707 86.882,23.102 91.008,24.995 C91.044,25.010 91.074,25.036 91.092,25.071 L91.092,25.071 ZM63.658,48.029 C63.709,44.459 61.107,41.506 57.841,41.506 C54.601,41.506 52.024,44.434 52.024,48.029 C52.024,51.624 54.652,54.551 57.841,54.551 C61.081,54.551 63.658,51.624 63.658,48.029 ZM85.167,48.029 C85.219,44.459 82.616,41.506 79.350,41.506 C76.110,41.506 73.533,44.434 73.533,48.029 C73.533,51.624 76.161,54.551 79.350,54.551 C82.616,54.551 85.167,51.624 85.167,48.029 Z" />
</svg>