<svg
  xmlns="http://www.w3.org/2000/svg"
  xmlns:xlink="http://www.w3.org/1999/xlink"
  width="326px" height="196px">
  <path fill-rule="evenodd" fill="#31e78b"
    d="M325.807,87.970 L319.306,99.359 C319.220,99.510 319.060,99.605 318.886,99.605 L314.559,99.621 C314.385,99.621 314.224,99.529 314.136,99.378 L312.089,95.852 C312.047,95.779 312.024,95.696 312.023,95.612 C312.021,95.341 312.238,95.120 312.508,95.118 L316.271,95.105 L316.271,95.101 C316.444,95.099 316.605,95.006 316.691,94.855 L322.913,83.954 C322.956,83.880 323.017,83.818 323.091,83.776 C323.324,83.640 323.623,83.720 323.758,83.954 L325.807,87.482 C325.894,87.633 325.894,87.819 325.807,87.970 ZM319.372,83.466 C319.329,83.540 319.268,83.602 319.194,83.645 C318.961,83.780 318.662,83.700 318.527,83.466 L316.646,80.199 L316.646,80.200 C316.559,80.048 316.398,79.956 316.223,79.956 L303.696,79.956 C303.610,79.956 303.526,79.933 303.452,79.890 C303.219,79.755 303.139,79.456 303.274,79.222 L305.309,75.687 C305.396,75.536 305.557,75.442 305.732,75.442 L318.820,75.442 C318.994,75.442 319.155,75.536 319.242,75.687 L321.406,79.444 C321.493,79.595 321.493,79.782 321.406,79.933 L319.372,83.466 ZM312.284,84.452 C312.475,84.452 312.665,84.468 312.852,84.502 C314.174,84.771 315.121,85.940 315.114,87.292 C315.131,88.050 314.832,88.781 314.290,89.310 C313.902,89.712 313.400,89.983 312.852,90.086 C312.665,90.120 312.475,90.136 312.284,90.136 C310.719,90.136 309.449,88.863 309.449,87.294 C309.449,85.725 310.719,84.452 312.284,84.452 ZM305.637,83.121 C305.871,83.255 305.952,83.554 305.818,83.789 L303.945,87.060 L303.947,87.053 C303.860,87.204 303.860,87.391 303.947,87.542 L310.239,98.402 C310.281,98.477 310.304,98.560 310.304,98.645 C310.305,98.915 310.088,99.135 309.818,99.137 L305.740,99.138 C305.566,99.139 305.405,99.046 305.318,98.896 L298.741,87.549 C298.654,87.398 298.654,87.211 298.741,87.060 L300.903,83.311 C300.990,83.161 301.151,83.067 301.325,83.067 L305.394,83.057 C305.479,83.057 305.563,83.078 305.637,83.121 ZM268.876,119.352 L261.761,119.352 L261.761,84.102 L250.481,84.102 L250.481,76.966 L280.154,76.966 L280.156,84.102 L268.876,84.102 L268.876,119.352 ZM91.325,76.966 L91.325,119.359 L84.208,119.359 L84.208,101.725 L68.768,101.725 L68.768,119.359 L61.646,119.359 L61.646,76.966 L68.763,76.966 L68.763,94.593 L84.203,94.593 L84.203,76.966 L91.325,76.966 ZM195.475,178.198 C190.168,181.883 184.512,185.034 178.588,187.605 C176.664,188.445 174.713,189.222 172.734,189.937 C162.483,193.613 151.695,195.563 140.808,195.705 C127.735,195.876 114.755,193.475 102.603,188.640 C97.667,186.661 92.906,184.270 88.369,181.492 C87.973,181.252 87.581,181.007 87.192,180.760 C86.541,180.343 85.894,179.924 85.250,179.493 C82.534,177.671 79.904,175.717 77.384,173.633 C74.864,171.549 72.444,169.338 70.137,167.020 C69.847,166.730 69.562,166.436 69.280,166.139 C60.469,156.979 53.511,146.196 48.789,134.385 C46.374,128.316 44.560,122.025 43.374,115.600 C43.355,115.486 43.332,115.375 43.313,115.254 C39.881,96.069 42.169,76.295 49.890,58.408 C55.030,46.568 62.416,35.842 71.637,26.827 C76.230,22.359 81.235,18.336 86.583,14.812 C91.925,11.303 97.594,8.320 103.510,5.905 C104.488,5.511 105.474,5.123 106.464,4.756 C111.183,3.004 116.028,1.617 120.958,0.606 C123.106,0.164 123.975,-0.001 124.073,-0.005 C123.956,0.034 122.966,0.247 121.823,0.475 C76.592,9.660 44.348,49.909 45.161,96.169 C45.260,101.623 45.815,107.058 46.821,112.418 C46.974,113.223 47.135,114.022 47.301,114.820 C48.392,119.985 49.910,125.050 51.839,129.963 C52.185,130.888 52.551,131.801 52.936,132.700 C53.458,133.948 54.028,135.182 54.646,136.403 C58.627,144.232 64.654,151.173 73.084,154.223 C84.703,158.425 97.904,151.866 108.856,158.575 C114.478,162.023 117.356,167.962 120.501,173.497 C125.800,183.228 135.391,189.860 146.345,191.371 C147.244,191.470 148.141,191.535 149.037,191.565 C156.136,191.591 163.178,190.297 169.806,187.748 C169.810,187.746 169.814,187.746 169.818,187.748 C170.973,187.400 172.118,187.035 173.257,186.648 C174.693,186.157 176.118,185.638 177.534,185.086 C183.393,182.771 189.008,179.877 194.297,176.450 C199.581,172.983 204.517,169.011 209.038,164.591 C237.029,137.033 245.592,95.229 230.698,58.841 C225.852,47.030 225.886,47.016 230.801,58.800 C235.735,70.642 238.309,83.338 238.378,96.171 L238.380,96.173 C238.588,122.199 228.463,147.240 210.235,165.773 C205.729,170.384 200.786,174.546 195.475,178.198 ZM198.006,119.352 L190.890,119.352 L190.890,76.966 L213.860,76.966 L213.860,84.102 L198.006,84.102 L198.006,93.324 L213.862,93.324 L213.862,100.460 L198.006,100.460 L198.006,119.352 ZM135.874,76.964 L142.989,76.964 L142.989,119.352 L135.874,119.352 L135.874,76.964 ZM11.312,91.193 C12.304,91.648 13.369,92.031 14.497,92.437 C16.336,93.043 18.119,93.806 19.828,94.716 C24.447,97.318 27.097,101.238 27.097,105.483 C27.088,113.137 20.900,119.339 13.265,119.347 L13.265,119.352 C7.166,119.330 1.789,115.336 -0.007,109.493 L6.728,106.245 C6.979,107.109 7.310,107.949 7.718,108.752 C8.233,109.759 9.021,110.600 9.990,111.181 C13.259,112.977 17.362,111.776 19.154,108.499 C19.659,107.576 19.942,106.546 19.980,105.493 C19.980,103.650 18.102,101.937 16.346,100.949 C14.980,100.239 13.558,99.642 12.095,99.165 C10.883,98.726 9.613,98.273 8.346,97.690 C4.173,95.928 1.456,91.835 1.447,87.296 C1.448,80.751 6.736,75.443 13.265,75.435 C19.058,75.435 23.409,78.302 24.723,83.357 L18.199,86.499 C17.623,84.227 15.605,82.620 13.267,82.571 C10.671,82.574 8.567,84.682 8.564,87.285 C8.628,89.019 9.706,90.550 11.312,91.193 Z" />
</svg>