<svg
  xmlns="http://www.w3.org/2000/svg"
  xmlns:xlink="http://www.w3.org/1999/xlink"
  width="284px" height="184px">
  <path fill-rule="evenodd" fill="#31e78b"
    d="M141.155,183.882 L0.324,125.719 L0.324,3.570 L141.155,0.037 L141.155,0.024 L283.667,3.580 L283.667,125.443 L141.155,183.882 ZM116.427,159.361 C116.478,159.415 116.535,159.463 116.597,159.503 C117.364,160.242 118.193,160.912 119.076,161.505 C119.903,162.069 120.791,162.535 121.725,162.894 C122.429,163.167 123.161,163.364 123.907,163.482 C124.567,163.602 125.245,163.574 125.892,163.397 C126.485,163.212 126.992,162.820 127.321,162.291 L127.337,162.309 C127.751,161.568 127.942,160.723 127.887,159.876 C127.886,159.494 127.864,159.113 127.819,158.735 C127.770,158.345 127.681,157.961 127.553,157.590 C127.391,157.103 127.164,156.641 126.877,156.216 C126.594,155.798 126.272,155.408 125.914,155.053 C125.557,154.696 125.176,154.362 124.773,154.057 C124.363,153.748 123.973,153.457 123.569,153.196 C123.166,152.934 122.781,152.689 122.406,152.466 C122.031,152.244 121.697,152.028 121.386,151.822 C121.112,151.637 120.850,151.435 120.602,151.217 C120.418,151.064 120.270,150.874 120.165,150.659 C120.096,150.489 120.062,150.307 120.063,150.124 C120.046,149.919 120.099,149.714 120.214,149.542 C120.313,149.420 120.454,149.339 120.609,149.314 C120.783,149.288 120.960,149.298 121.130,149.343 C121.324,149.385 121.500,149.437 121.670,149.495 C122.402,149.751 123.090,150.120 123.710,150.588 C124.397,151.101 125.054,151.653 125.679,152.241 C125.962,151.745 126.238,151.267 126.517,150.788 C126.796,150.308 127.078,149.824 127.379,149.322 C126.632,148.504 125.785,147.786 124.856,147.184 C124.026,146.652 123.138,146.220 122.209,145.896 C121.682,145.718 121.141,145.584 120.592,145.496 C120.086,145.412 119.569,145.404 119.060,145.473 C118.586,145.544 118.135,145.724 117.743,146.003 C117.319,146.323 116.988,146.752 116.785,147.245 C116.654,147.534 116.560,147.839 116.506,148.152 C116.443,148.485 116.411,148.823 116.410,149.161 C116.390,150.027 116.536,150.888 116.840,151.699 C117.111,152.380 117.501,153.007 117.991,153.551 C118.233,153.817 118.493,154.066 118.768,154.297 C119.041,154.527 119.342,154.764 119.643,154.980 C119.943,155.197 120.249,155.403 120.572,155.603 L121.552,156.234 C121.801,156.399 122.056,156.550 122.312,156.702 C122.570,156.858 122.818,157.031 123.054,157.221 C123.169,157.311 123.279,157.408 123.383,157.511 C123.496,157.625 123.610,157.744 123.717,157.875 C123.815,158.002 123.901,158.138 123.973,158.281 C124.043,158.422 124.080,158.577 124.081,158.735 C124.104,158.975 124.040,159.216 123.899,159.412 C123.777,159.537 123.614,159.614 123.440,159.629 C123.230,159.638 123.020,159.615 122.817,159.561 C122.596,159.491 122.387,159.423 122.188,159.349 C121.486,159.087 120.819,158.738 120.203,158.311 C119.544,157.853 118.926,157.338 118.355,156.773 C118.221,156.629 118.079,156.493 117.929,156.368 C117.861,156.488 117.733,156.688 117.571,156.973 C117.408,157.257 117.226,157.559 117.034,157.862 C116.942,158.027 116.858,158.179 116.761,158.330 L116.528,158.735 C116.461,158.848 116.403,158.951 116.358,159.025 C116.332,159.071 116.310,159.118 116.290,159.167 C116.322,159.241 116.369,159.307 116.427,159.361 ZM81.641,141.846 C81.641,142.509 81.723,143.170 81.885,143.813 C82.048,144.453 82.279,145.074 82.571,145.666 C82.864,146.247 83.217,146.795 83.625,147.302 C84.016,147.782 84.459,148.218 84.946,148.600 C85.147,148.765 85.360,148.916 85.581,149.054 C85.786,149.182 86.003,149.292 86.228,149.379 C86.443,149.460 86.665,149.519 86.892,149.557 C87.105,149.585 87.321,149.596 87.537,149.591 C88.004,149.583 88.465,149.480 88.891,149.288 C89.311,149.088 89.682,148.796 89.975,148.434 C90.299,148.030 90.543,147.568 90.696,147.073 C90.874,146.478 90.960,145.859 90.951,145.238 L90.942,135.749 L87.794,134.690 L87.794,143.843 C87.799,144.092 87.755,144.340 87.665,144.572 C87.587,144.758 87.469,144.923 87.319,145.056 C87.176,145.170 87.006,145.244 86.825,145.273 C86.621,145.293 86.415,145.265 86.223,145.193 C86.011,145.109 85.815,144.991 85.644,144.840 C85.455,144.669 85.289,144.473 85.150,144.259 C85.006,144.030 84.892,143.782 84.810,143.524 C84.724,143.261 84.680,142.986 84.679,142.709 L84.679,133.633 L81.641,132.601 L81.641,141.846 ZM26.325,126.183 L28.407,126.976 L28.407,120.348 L31.162,128.020 L33.322,128.840 L33.322,116.231 L31.162,115.496 L31.162,122.250 L28.394,114.562 L26.325,113.855 L26.325,126.183 ZM10.798,108.596 L8.920,107.963 L8.920,119.601 L10.798,120.314 L10.798,108.596 ZM57.517,52.347 L37.122,49.811 L37.122,80.234 L28.632,78.358 L28.632,30.893 L57.517,32.801 L57.517,14.963 L11.501,14.358 L11.501,89.988 L57.517,102.595 L57.517,52.347 ZM59.871,129.409 C59.634,128.527 59.289,127.677 58.845,126.879 C58.437,126.150 57.927,125.484 57.331,124.902 C56.809,124.383 56.180,123.987 55.487,123.745 L51.376,122.349 L51.376,135.711 L55.487,137.272 C56.072,137.511 56.714,137.566 57.331,137.431 C57.911,137.290 58.437,136.980 58.845,136.541 C59.311,136.021 59.661,135.407 59.871,134.740 L59.871,134.739 C60.132,133.923 60.258,133.070 60.246,132.214 C60.246,131.267 60.120,130.323 59.871,129.409 ZM134.190,15.966 L103.843,15.567 L103.843,94.968 L91.453,92.232 L91.453,15.407 L66.883,15.082 L66.883,105.170 L134.192,123.602 L134.190,15.966 ZM246.602,130.078 L253.174,127.605 L253.174,124.642 L248.773,126.255 L248.773,124.439 L252.924,122.946 L252.924,119.959 L248.773,121.419 L248.773,119.612 L253.174,118.091 L253.174,115.111 L246.602,117.322 L246.602,130.078 ZM194.165,149.819 L197.289,148.646 L197.276,144.087 L199.159,143.403 L201.081,147.216 L204.362,145.976 L201.804,140.937 C202.256,140.348 202.611,139.690 202.857,138.987 C203.107,138.297 203.235,137.568 203.236,136.833 C203.237,136.389 203.189,135.945 203.095,135.511 C203.015,135.117 202.869,134.741 202.664,134.395 C202.507,134.156 202.323,133.936 202.115,133.740 C201.901,133.547 201.665,133.378 201.412,133.238 C201.163,133.110 200.895,133.024 200.618,132.983 C200.346,132.944 200.068,132.970 199.808,133.056 L194.165,134.955 L194.165,149.819 ZM157.646,150.966 L157.895,151.172 L161.638,149.878 L161.638,162.069 L165.284,160.695 L165.284,148.635 L168.896,147.387 L169.134,147.022 L169.134,143.356 L157.646,147.220 L157.646,150.966 ZM216.431,15.077 L191.559,15.395 L191.559,44.093 L179.725,15.550 L148.260,15.960 L148.260,123.598 L179.010,115.236 L179.010,85.717 L190.879,112.123 L216.431,105.165 L216.431,15.077 ZM225.343,138.085 L227.901,137.122 L227.901,123.612 L225.343,124.472 L225.343,138.085 ZM272.414,14.348 L255.107,14.575 L255.107,38.373 L247.011,14.678 L225.906,14.952 L225.906,102.481 L246.522,96.872 L246.522,72.533 L254.642,94.742 L272.414,89.901 L272.414,14.348 ZM274.966,115.168 C274.944,114.932 274.898,114.699 274.829,114.473 C274.762,114.227 274.644,113.997 274.484,113.799 C274.350,113.630 274.182,113.490 273.991,113.390 C273.807,113.288 273.607,113.217 273.401,113.179 C273.197,113.135 272.990,113.105 272.782,113.088 C272.566,113.072 272.363,113.072 272.164,113.072 C271.984,113.075 271.805,113.070 271.625,113.055 C271.482,113.048 271.340,113.020 271.205,112.970 C271.103,112.936 271.019,112.859 270.974,112.760 C270.931,112.649 270.912,112.531 270.916,112.413 C270.912,112.245 270.941,112.078 271.002,111.922 C271.049,111.798 271.120,111.683 271.211,111.586 C271.291,111.499 271.387,111.427 271.494,111.376 C271.588,111.329 271.684,111.287 271.783,111.251 C272.127,111.124 272.499,111.091 272.860,111.154 C273.211,111.227 273.554,111.340 273.881,111.489 C274.022,111.022 274.163,110.560 274.305,110.104 C274.446,109.649 274.597,109.182 274.747,108.708 C274.365,108.435 273.916,108.271 273.449,108.235 C272.979,108.200 272.508,108.262 272.064,108.417 C271.764,108.518 271.475,108.650 271.202,108.810 C270.898,108.989 270.619,109.206 270.370,109.455 C270.090,109.745 269.848,110.069 269.649,110.418 C269.417,110.841 269.238,111.291 269.116,111.757 C269.049,112.020 268.998,112.286 268.965,112.556 C268.932,112.819 268.915,113.083 268.914,113.349 C268.889,113.919 268.969,114.490 269.152,115.031 C269.273,115.369 269.497,115.661 269.793,115.863 C269.925,115.948 270.068,116.013 270.219,116.056 C270.375,116.101 270.535,116.133 270.696,116.153 C270.862,116.171 271.029,116.181 271.196,116.182 C271.366,116.182 271.542,116.193 271.716,116.193 C271.853,116.193 271.989,116.182 272.120,116.182 C272.253,116.175 272.387,116.188 272.517,116.221 C272.577,116.234 272.636,116.253 272.693,116.279 C272.755,116.307 272.813,116.346 272.863,116.393 C272.921,116.439 272.968,116.498 273.000,116.565 C273.042,116.651 273.061,116.748 273.057,116.844 C273.063,117.038 273.030,117.232 272.961,117.414 C272.907,117.552 272.824,117.676 272.719,117.779 C272.623,117.873 272.514,117.951 272.395,118.012 C272.287,118.066 272.175,118.113 272.061,118.154 C271.726,118.286 271.368,118.346 271.008,118.331 C270.659,118.304 270.317,118.216 269.998,118.070 C269.925,118.028 269.847,117.996 269.766,117.973 C269.730,118.098 269.669,118.313 269.572,118.594 C269.476,118.875 269.380,119.183 269.272,119.502 C269.223,119.662 269.172,119.821 269.121,119.975 C269.070,120.129 269.030,120.270 268.990,120.391 C268.950,120.512 268.922,120.609 268.894,120.694 C268.879,120.738 268.868,120.784 268.859,120.830 C268.859,120.848 268.882,120.875 268.933,120.910 C268.961,120.925 268.992,120.931 269.024,120.928 C269.459,121.101 269.922,121.194 270.390,121.202 C270.877,121.204 271.361,121.117 271.818,120.944 C272.224,120.784 272.609,120.577 272.969,120.329 C273.361,120.061 273.708,119.729 273.995,119.349 C274.313,118.912 274.561,118.427 274.727,117.912 L274.720,117.904 C274.918,117.269 275.012,116.605 274.999,115.938 C274.999,115.681 274.988,115.419 274.966,115.168 ZM199.811,136.767 C199.932,136.877 200.025,137.014 200.083,137.167 C200.152,137.354 200.186,137.553 200.184,137.753 C200.182,137.974 200.147,138.193 200.083,138.404 C200.016,138.611 199.925,138.811 199.811,138.996 C199.701,139.175 199.565,139.336 199.407,139.474 C199.268,139.606 199.105,139.709 198.926,139.777 L197.179,140.393 L197.179,137.216 L198.926,136.612 C199.080,136.555 199.246,136.539 199.407,136.566 C199.558,136.591 199.699,136.661 199.811,136.765 L199.811,136.767 ZM56.921,133.480 C56.717,133.707 56.450,133.867 56.155,133.941 C55.839,134.010 55.509,133.982 55.209,133.861 L53.791,133.336 L53.791,126.434 L55.209,126.930 C55.565,127.060 55.888,127.266 56.155,127.535 C56.459,127.834 56.717,128.176 56.921,128.551 L56.921,128.545 C57.151,128.950 57.325,129.385 57.437,129.838 C57.566,130.302 57.631,130.781 57.630,131.262 C57.637,131.700 57.572,132.136 57.437,132.552 C57.337,132.896 57.160,133.213 56.921,133.480 Z" />
</svg>