<svg
  xmlns="http://www.w3.org/2000/svg"
  xmlns:xlink="http://www.w3.org/1999/xlink"
  width="254px" height="202px">
  <path fill-rule="evenodd" fill="#31e78b"
    d="M222.210,40.381 L215.138,41.675 L197.330,64.562 L184.500,67.144 L168.446,87.779 L140.339,93.436 L147.947,106.633 L167.338,111.834 L157.918,117.282 L153.504,116.271 L153.413,116.249 L114.436,105.790 L88.642,110.890 L85.767,111.458 L84.357,111.737 L82.215,108.023 L74.433,112.540 L73.291,116.810 L69.362,109.994 L70.505,105.721 L77.140,101.870 L90.167,94.306 L93.251,92.523 L45.787,50.956 L44.870,50.155 L36.746,47.976 C36.198,48.001 35.664,48.158 35.188,48.432 L32.336,50.081 L34.305,42.719 L38.128,40.507 L45.725,42.546 L47.072,41.770 L49.765,40.215 L96.422,52.734 L147.771,23.037 C151.551,20.849 155.664,19.300 159.946,18.451 L253.528,-0.000 L222.210,40.381 ZM151.708,29.849 L100.358,59.548 L97.530,61.177 L80.596,70.973 L98.434,86.596 L106.704,93.838 L114.713,97.712 L137.219,103.751 L135.170,100.197 L130.232,91.636 L128.064,87.876 L136.837,86.111 L149.434,83.577 L164.047,80.636 L178.310,62.305 L180.101,60.001 L182.961,59.427 L192.934,57.421 L208.944,36.839 L210.786,34.474 L213.733,33.934 L217.463,33.252 L233.990,11.894 L161.477,26.174 C158.041,26.851 154.740,28.093 151.708,29.849 ZM42.476,156.610 L37.787,162.634 L36.506,164.279 L21.234,183.894 L5.966,164.279 L4.684,162.634 L-0.005,156.610 L9.806,156.610 L14.701,162.634 L16.039,164.279 L21.283,170.729 L26.506,164.279 L27.836,162.634 L32.713,156.610 L42.476,156.610 ZM78.575,163.760 L55.476,163.664 L55.476,166.958 L74.716,166.958 L74.716,173.162 L55.476,173.162 L55.476,176.884 L78.668,176.884 L78.718,183.890 L46.999,183.890 L46.999,156.557 L78.575,156.557 L78.575,163.760 ZM85.568,164.281 C85.872,163.706 86.220,163.156 86.608,162.635 C87.266,161.758 88.032,160.967 88.890,160.283 C90.440,159.046 92.207,158.108 94.099,157.517 C96.229,156.866 98.446,156.544 100.673,156.563 L119.767,156.563 L119.646,162.631 L119.623,163.761 L100.670,163.666 C99.588,163.657 98.510,163.819 97.478,164.145 C97.365,164.189 97.251,164.232 97.140,164.279 C96.357,164.592 95.621,165.013 94.954,165.530 C94.271,166.118 93.706,166.831 93.289,167.631 C92.878,168.478 92.667,169.406 92.669,170.347 C92.662,171.269 92.858,172.182 93.243,173.021 C93.641,173.833 94.228,174.536 94.956,175.072 C95.706,175.671 96.562,176.124 97.479,176.407 L97.480,176.400 C98.512,176.730 99.590,176.891 100.673,176.877 L119.771,176.877 L119.676,183.890 L100.673,183.890 C98.439,183.913 96.216,183.559 94.099,182.842 C92.198,182.202 90.432,181.215 88.890,179.931 C87.439,178.716 86.263,177.203 85.441,175.497 C84.603,173.776 84.176,171.882 84.196,169.967 C84.175,168.081 84.602,166.218 85.441,164.529 C85.483,164.447 85.526,164.363 85.568,164.281 ZM162.148,163.669 L146.960,163.669 L146.960,183.901 L138.913,183.901 L138.913,163.669 L123.719,163.669 L123.719,156.562 L162.148,156.562 L162.148,163.669 ZM166.691,162.634 C167.480,161.399 168.513,160.340 169.726,159.522 C173.029,157.264 178.014,156.135 184.681,156.135 C191.315,156.134 196.299,157.262 199.634,159.522 C200.857,160.338 201.900,161.397 202.697,162.634 C203.030,163.157 203.318,163.709 203.561,164.279 L203.557,164.279 C204.310,166.162 204.676,168.177 204.634,170.205 C204.632,175.165 202.965,178.742 199.633,180.936 C196.332,183.228 191.347,184.373 184.680,184.373 C178.011,184.372 173.027,183.226 169.725,180.936 C166.422,178.744 164.771,175.167 164.771,170.205 C164.730,168.179 165.092,166.164 165.836,164.279 C166.075,163.708 166.361,163.157 166.691,162.634 ZM173.765,173.830 C174.157,174.733 174.846,175.474 175.717,175.930 C176.836,176.531 178.069,176.888 179.335,176.979 C181.106,177.184 182.888,177.281 184.670,177.267 C186.470,177.281 188.268,177.185 190.056,176.979 C191.309,176.894 192.528,176.537 193.629,175.930 C194.505,175.466 195.207,174.729 195.628,173.830 L195.630,173.830 C196.085,172.677 196.296,171.443 196.249,170.205 C196.290,168.997 196.079,167.796 195.630,166.675 C195.219,165.757 194.516,165.001 193.630,164.528 C193.466,164.436 193.297,164.353 193.124,164.279 C192.142,163.887 191.110,163.634 190.057,163.527 C188.271,163.310 186.471,163.215 184.671,163.243 C182.889,163.216 181.106,163.311 179.337,163.527 C178.270,163.631 177.223,163.885 176.226,164.279 C176.052,164.353 175.882,164.436 175.717,164.528 C174.850,165.011 174.165,165.766 173.765,166.675 C173.315,167.796 173.104,168.997 173.145,170.205 C173.098,171.443 173.309,172.677 173.765,173.830 ZM186.504,192.575 C187.101,192.099 187.781,191.738 188.509,191.511 C189.328,191.261 190.180,191.137 191.037,191.144 L198.382,191.144 L198.327,193.915 L191.037,193.878 C190.621,193.875 190.207,193.937 189.810,194.062 C189.461,194.187 189.133,194.366 188.839,194.593 C188.575,194.819 188.358,195.094 188.198,195.402 C188.040,195.728 187.959,196.086 187.960,196.448 C187.957,196.802 188.032,197.153 188.179,197.475 C188.333,197.788 188.559,198.058 188.839,198.264 C189.127,198.495 189.457,198.670 189.810,198.778 C190.206,198.905 190.620,198.967 191.037,198.962 L198.386,198.962 L198.349,201.659 L191.037,201.659 C190.177,201.668 189.323,201.531 188.509,201.255 C187.778,201.008 187.098,200.629 186.504,200.135 C185.946,199.667 185.494,199.085 185.178,198.429 C184.855,197.767 184.692,197.038 184.700,196.300 C184.691,195.575 184.855,194.858 185.178,194.209 C185.496,193.574 185.948,193.016 186.504,192.575 ZM201.499,192.283 C203.248,191.295 205.247,190.842 207.250,190.980 L207.252,190.980 C209.254,190.845 211.253,191.298 213.003,192.283 C215.274,194.181 215.578,197.564 213.682,199.840 C213.477,200.087 213.249,200.314 213.003,200.521 C209.370,202.283 205.132,202.283 201.499,200.521 C199.228,198.596 198.944,195.193 200.865,192.918 C201.059,192.689 201.271,192.476 201.499,192.283 ZM203.054,197.783 C203.205,198.131 203.471,198.417 203.806,198.592 C204.237,198.824 204.711,198.961 205.198,198.997 C205.879,199.075 206.564,199.113 207.250,199.107 C207.942,199.113 208.633,199.076 209.320,198.997 C209.802,198.964 210.271,198.826 210.695,198.592 C211.032,198.413 211.302,198.129 211.464,197.783 C211.639,197.339 211.720,196.865 211.702,196.388 C211.718,195.924 211.637,195.461 211.464,195.031 C211.306,194.677 211.035,194.387 210.695,194.205 C210.264,193.992 209.798,193.861 209.320,193.819 C208.633,193.735 207.942,193.699 207.250,193.709 C206.564,193.699 205.879,193.736 205.198,193.819 C204.714,193.859 204.242,193.990 203.806,194.205 C203.472,194.390 203.208,194.680 203.054,195.031 C202.881,195.461 202.800,195.924 202.816,196.388 C202.798,196.865 202.879,197.339 203.054,197.783 ZM207.449,183.899 L207.449,169.925 L231.118,169.925 C232.153,169.906 233.173,169.677 234.117,169.251 C235.137,168.922 235.803,167.939 235.733,166.868 C235.779,165.907 235.306,164.996 234.495,164.482 C234.382,164.408 234.266,164.341 234.147,164.281 C233.198,163.839 232.159,163.630 231.114,163.669 L207.445,163.669 L207.445,156.657 L230.399,156.657 C232.012,156.665 233.621,156.809 235.209,157.085 C236.785,157.365 238.310,157.879 239.735,158.607 C241.043,159.341 242.179,160.347 243.068,161.556 C243.297,161.897 243.494,162.258 243.656,162.635 C243.885,163.164 244.054,163.715 244.163,164.281 C244.293,164.968 244.358,165.666 244.354,166.366 C244.352,167.383 244.192,168.394 243.879,169.362 C243.573,170.292 243.105,171.162 242.497,171.931 C241.865,172.721 241.088,173.383 240.208,173.881 C239.292,174.410 238.294,174.780 237.255,174.977 L245.124,183.899 L235.217,183.899 L228.837,176.696 L215.932,176.696 L215.932,183.899 L207.449,183.899 ZM226.689,191.344 C227.295,191.453 227.881,191.651 228.429,191.931 C228.931,192.214 229.368,192.601 229.711,193.065 C230.057,193.617 230.229,194.262 230.203,194.915 C230.203,195.306 230.141,195.695 230.020,196.067 C229.904,196.426 229.724,196.760 229.490,197.054 C229.247,197.358 228.948,197.613 228.610,197.804 C228.258,198.007 227.874,198.150 227.474,198.226 L230.497,201.657 L226.688,201.657 L224.233,198.886 L219.270,198.886 L219.270,201.657 L216.010,201.657 L216.010,191.180 L224.838,191.180 C225.458,191.183 226.078,191.237 226.689,191.344 ZM219.264,196.280 L225.107,196.280 C225.505,196.273 225.898,196.186 226.262,196.024 L226.263,196.032 C226.655,195.905 226.911,195.527 226.884,195.115 C226.903,194.746 226.721,194.396 226.409,194.198 C226.014,193.970 225.562,193.861 225.107,193.885 L219.264,193.885 L219.264,196.280 ZM239.982,191.148 C240.713,191.138 241.442,191.237 242.143,191.442 C242.732,191.609 243.284,191.884 243.773,192.251 C244.186,192.591 244.522,193.014 244.758,193.493 C245.220,194.506 245.220,195.669 244.757,196.681 C244.532,197.165 244.186,197.583 243.752,197.895 C243.266,198.261 242.713,198.529 242.124,198.684 C241.425,198.890 240.699,198.990 239.970,198.978 L234.485,198.978 L234.485,201.657 L231.226,201.657 L231.226,200.796 L231.207,200.796 L231.207,192.363 L231.215,192.363 L231.207,191.148 L239.982,191.148 ZM234.461,196.278 L240.269,196.278 C240.680,196.300 241.086,196.184 241.423,195.947 L241.423,195.960 C241.698,195.752 241.855,195.423 241.844,195.079 C241.852,194.740 241.695,194.417 241.423,194.215 C241.086,193.979 240.680,193.862 240.269,193.885 L234.461,193.885 L234.461,196.278 ZM244.763,193.500 C244.761,193.497 244.760,193.495 244.758,193.493 C244.758,193.491 244.758,193.490 244.757,193.488 L244.763,193.500 Z" />
</svg>