<svg
  xmlns="http://www.w3.org/2000/svg"
  xmlns:xlink="http://www.w3.org/1999/xlink"
  width="33px" height="33px">
  <path fill-rule="evenodd" stroke="rgb(207, 208, 210)" stroke-width="2px" stroke-linecap="butt"
    stroke-linejoin="miter" fill="none"
    d="M6.728,26.095 C7.562,24.130 9.510,22.751 11.780,22.751 L20.009,22.751 C22.279,22.751 24.227,24.130 25.061,26.095 M21.380,12.465 C21.380,15.494 18.924,17.951 15.894,17.951 C12.865,17.951 10.408,15.494 10.408,12.465 C10.408,9.435 12.865,6.979 15.894,6.979 C18.924,6.979 21.380,9.435 21.380,12.465 ZM29.609,15.894 C29.609,23.468 23.469,29.608 15.894,29.608 C8.320,29.608 2.179,23.468 2.179,15.894 C2.179,8.320 8.320,2.179 15.894,2.179 C23.469,2.179 29.609,8.320 29.609,15.894 Z" />
</svg>