<?xml version="1.0" encoding="utf-8"?>
<!-- Generator: Adobe Illustrator 25.0.0, SVG Export Plug-In . SVG Version: 6.00 Build 0)  -->
<svg version="1.1" id="Layer_1" xmlns="http://www.w3.org/2000/svg" xmlns:xlink="http://www.w3.org/1999/xlink" x="0px" y="0px"
	 viewBox="0 0 460.6 70" style="enable-background:new 0 0 460.6 70;" xml:space="preserve">
<style type="text/css">
	.st0{fill:none;stroke:#31E78B;stroke-width:2;}
	.st1{fill-rule:evenodd;clip-rule:evenodd;fill:#31E78B;}
</style>
<path class="st0" d="M456,27.3v15.1l2.3,2v13.1c0,5-4.7,9.1-10.5,9.1H13.5c-5.8,0.1-10.5-4-10.5-9V44.4l2.3-2V27.3l-2.3-2V11.9
	c0-5,4.7-9.1,10.5-9.1h434.3c5.8,0,10.5,4.1,10.5,9.1v13.5L456,27.3z"/>
<path class="st1" d="M312.7,38.4c-1.3,0-2.5-1.1-2.5-2.4c0-1.4,1.1-2.5,2.5-2.5c1.3,0,2.4,1.1,2.4,2.5
	C315.1,37.3,314,38.4,312.7,38.4 M313,42.9c-1.2,1.2-3,1.8-5.6,1.8s-4.5-0.6-5.6-1.8c-0.3-0.3-0.3-0.7,0-0.9c0.3-0.3,0.7-0.3,0.9,0
	c0.9,0.9,2.5,1.4,4.7,1.4c2.3,0,3.8-0.5,4.7-1.4c0.3-0.3,0.7-0.3,0.9,0C313.3,42.2,313.3,42.7,313,42.9 M299.7,36
	c0-1.4,1.1-2.5,2.4-2.5s2.4,1.1,2.4,2.5c0,1.3-1.1,2.4-2.4,2.4S299.7,37.3,299.7,36 M324.9,33.3c0-2.2-1.8-4-4-4c-1,0-2,0.4-2.7,1.1
	c-2.6-1.7-6.1-2.8-10-3l2.1-6.6l5.6,1.3c0,1.8,1.5,3.3,3.3,3.3s3.3-1.5,3.3-3.3s-1.5-3.3-3.3-3.3c-1.3,0-2.5,0.8-3,2
	c-1.2-0.3-5.5-1.3-6.7-1.6l-2.6,8.2c-4,0.1-7.7,1.2-10.4,3c-0.7-0.6-1.6-1-2.6-1c-2.2,0-4,1.8-4,4c0,1.4,0.7,2.7,1.9,3.4
	c-1.1,6.3,6.3,11.8,15.5,11.8s16.5-5.4,15.6-11.7C324.1,36.1,324.9,34.7,324.9,33.3"/>
<path class="st1" d="M364.6,37.5h3.2v-7.9h-3.2V37.5z M356.7,37.5h3.2v-7.9h-3.2V37.5z M372.6,39.6V24.8h-22.2v19.1h6.4v4.7l4.1-4.7
	h7.6L372.6,39.6z M367.7,48.7h-6.2l-4.1,4.8h-3.8v-4.8h-7.9V27.2l2.1-5.5h28.1V41L367.7,48.7z"/>
<path class="st1" d="M96.7,32.6l10.7-12.5h-2.5l-9.3,10.8l-7.4-10.8h-8.6l11.2,16.4L79.6,49.6h2.5l9.8-11.4l7.9,11.4h8.6L96.7,32.6
	L96.7,32.6z M93.3,36.6L92.1,35L83,22h3.9l7.3,10.5l1.1,1.6l9.5,13.6h-3.9L93.3,36.6L93.3,36.6z"/>
<path class="st1" d="M213.8,20.1h-26.2c-0.9,0-1.6,0.7-1.6,1.6V48c0,0.9,0.7,1.6,1.6,1.6h14.1V38.2h-3.8v-4.5h3.8v-3.3
	c0-3.8,2.3-5.9,5.7-5.9c1.6,0,3,0.1,3.4,0.2v4h-2.4c-1.8,0-2.2,0.9-2.2,2.2v2.8h4.4l-0.6,4.5h-3.8v11.4h7.5c0.9,0,1.6-0.7,1.6-1.6
	V21.7C215.4,20.8,214.7,20.1,213.8,20.1z"/>
<path class="st1" d="M268.1,45.5c-0.8,1.5-2,2.8-3.6,3.6c-1.8,0.9-4,0.9-8.6,0.9h-3.8c-4.6,0-6.9,0-8.6-0.9c-1.5-0.8-2.8-2-3.6-3.6
	c-0.9-1.8-0.9-4-0.9-8.6v-3.8c0-4.6,0-6.9,0.9-8.6c0.8-1.5,2-2.8,3.6-3.6c1.8-0.9,4-0.9,8.6-0.9h3.8c4.6,0,6.9,0,8.6,0.9
	c1.5,0.8,2.8,2,3.6,3.6c0.9,1.8,0.9,4,0.9,8.6v3.8C269,41.5,269,43.8,268.1,45.5z M266.3,33.1c0-2.3,0-3.9-0.1-5.2
	c-0.1-1.2-0.3-1.8-0.5-2.2c-0.5-1-1.4-1.9-2.4-2.4c-0.4-0.2-1-0.4-2.2-0.5s-2.8-0.1-5.2-0.1h-3.8c-2.3,0-3.9,0-5.2,0.1
	c-1.2,0.1-1.8,0.3-2.2,0.5c-1,0.5-1.9,1.4-2.4,2.4c-0.2,0.4-0.4,1-0.5,2.2s-0.1,2.8-0.1,5.2v3.8c0,2.3,0,3.9,0.1,5.2
	c0.1,1.2,0.3,1.8,0.5,2.2c0.5,1,1.4,1.9,2.4,2.4c0.4,0.2,1,0.4,2.2,0.5s2.8,0.1,5.2,0.1h3.8c2.3,0,3.9,0,5.2-0.1
	c1.2-0.1,1.8-0.3,2.2-0.5c1-0.5,1.9-1.4,2.4-2.4c0.2-0.4,0.4-1,0.5-2.2s0.1-2.8,0.1-5.2V33.1z M262.2,28.2c-0.8,0-1.4-0.6-1.4-1.4
	s0.6-1.4,1.4-1.4s1.4,0.6,1.4,1.4C263.5,27.6,262.9,28.2,262.2,28.2z M254,43.2c-4.5,0-8.2-3.7-8.2-8.2s3.7-8.2,8.2-8.2
	c4.5,0,8.2,3.7,8.2,8.2S258.5,43.2,254,43.2z M254,29.5c-3,0-5.5,2.4-5.5,5.5c0,3,2.4,5.5,5.5,5.5c3,0,5.5-2.4,5.5-5.5
	C259.5,32,257,29.5,254,29.5z"/>
<path class="st1" d="M41.2,18.3c1.7,0,3.4,0,5.1,0c0.1,2,0.8,4.1,2.3,5.5c1.5,1.5,3.5,2.1,5.6,2.3v5.3c-1.9-0.1-3.8-0.5-5.5-1.3
	c-0.7-0.3-1.4-0.8-2.1-1.2c0,3.8,0,7.7,0,11.5c-0.1,1.8-0.7,3.7-1.8,5.2c-1.7,2.5-4.7,4.2-7.7,4.2c-1.9,0.1-3.7-0.4-5.3-1.3
	c-2.6-1.6-4.5-4.4-4.8-7.5c0-0.7,0-1.3,0-2c0.2-2.5,1.5-4.9,3.4-6.5c2.2-1.9,5.2-2.8,8.1-2.3c0,1.9-0.1,3.9-0.1,5.8
	c-1.3-0.4-2.8-0.3-4,0.5c-0.8,0.5-1.5,1.4-1.8,2.3c-0.3,0.7-0.2,1.4-0.2,2.1c0.3,2.2,2.4,4,4.6,3.8c1.5,0,2.9-0.9,3.6-2.1
	c0.2-0.4,0.5-0.9,0.5-1.4c0.1-2.3,0.1-4.7,0.1-7C41.2,28.8,41.2,23.6,41.2,18.3L41.2,18.3z"/>
<path class="st1" d="M159.9,20.2c-5.9-0.4-19.2-0.4-25.1,0c-6.4,0.4-7.2,4.3-7.2,14.5s0.8,14.1,7.2,14.5c5.9,0.4,19.2,0.4,25.1,0
	c6.4-0.4,7.2-4.3,7.2-14.5S166.4,20.6,159.9,20.2z M142.4,41.3V28.1l13.2,6.6L142.4,41.3z"/>
<path class="st1" d="M427.6,22.5c4.4,6.5,6.6,13.8,5.8,22.2c0,0,0,0.1-0.1,0.1c-3.3,2.4-6.6,3.9-9.7,4.9c-0.1,0-0.1,0-0.1,0
	c-0.7-1-1.4-2.1-2-3.2c0-0.1,0-0.1,0.1-0.2c1.1-0.4,2.1-0.9,3-1.4c0.1,0,0.1-0.2,0-0.2c-0.2-0.2-0.4-0.3-0.6-0.5h-0.1
	c-6.3,2.9-13.2,2.9-19.6,0h-0.1c-0.2,0.2-0.4,0.3-0.6,0.5c-0.1,0.1-0.1,0.2,0,0.2c1,0.6,2,1,3,1.4c0.1,0,0.1,0.1,0.1,0.2
	c-0.6,1.1-1.2,2.2-2,3.2c0,0-0.1,0.1-0.1,0c-3.2-1-6.4-2.5-9.7-4.9c0,0,0-0.1-0.1-0.1c-0.7-7.3,0.7-14.6,5.8-22.2c0,0,0,0,0.1,0
	c2.5-1.1,5.2-2,7.9-2.5c0.1,0,0.1,0,0.1,0.1c0.3,0.6,0.7,1.4,1,2c2.9-0.4,5.9-0.4,8.9,0c0.3-0.6,0.6-1.4,1-2l0.1-0.1
	C422.4,20.5,425.1,21.4,427.6,22.5L427.6,22.5L427.6,22.5z M411.1,36.4c0-2.1-1.5-3.9-3.5-3.9s-3.5,1.8-3.5,3.9s1.6,3.9,3.5,3.9
	C409.5,40.3,411.1,38.5,411.1,36.4z M424,36.4c0-2.1-1.5-3.9-3.5-3.9s-3.5,1.8-3.5,3.9s1.6,3.9,3.5,3.9
	C422.5,40.3,424,38.5,424,36.4z"/>
</svg>
