<svg
  xmlns="http://www.w3.org/2000/svg"
  xmlns:xlink="http://www.w3.org/1999/xlink"
  width="402px" height="70px">
  <path fill-rule="evenodd" fill="rgb(49, 231, 139)"
    d="M313.294,38.401 C311.961,38.401 310.843,37.306 310.843,35.956 C310.843,34.604 311.961,33.474 313.294,33.474 C314.625,33.474 315.705,34.604 315.705,35.956 C315.705,37.306 314.627,38.401 313.294,38.401 M313.633,42.918 C312.456,44.111 310.610,44.691 307.993,44.691 C305.374,44.691 303.530,44.111 302.354,42.918 C302.099,42.659 302.099,42.241 302.354,41.979 C302.608,41.720 303.023,41.720 303.278,41.979 C304.197,42.911 305.738,43.365 307.993,43.365 C310.246,43.365 311.789,42.911 312.709,41.979 C312.963,41.720 313.378,41.720 313.633,41.979 C313.889,42.241 313.889,42.659 313.633,42.918 M300.283,35.956 C300.283,34.606 301.399,33.474 302.730,33.474 C304.062,33.474 305.141,34.606 305.141,35.956 C305.141,37.306 304.062,38.401 302.730,38.401 C301.399,38.401 300.283,37.306 300.283,35.956 M325.489,33.268 C325.489,31.052 323.712,29.249 321.527,29.249 C320.519,29.249 319.569,29.630 318.841,30.313 C316.226,28.587 312.723,27.471 308.845,27.318 L310.984,20.695 L316.604,22.036 C316.606,23.860 318.068,25.342 319.867,25.342 C321.665,25.342 323.129,23.857 323.129,22.033 C323.129,20.209 321.665,18.723 319.867,18.723 C318.519,18.723 317.363,19.554 316.864,20.737 C315.654,20.448 311.326,19.414 310.115,19.124 L307.473,27.304 C303.448,27.380 299.800,28.491 297.087,30.258 C296.368,29.611 295.437,29.249 294.461,29.249 C292.277,29.249 290.500,31.052 290.500,33.268 C290.500,34.675 291.224,35.965 292.382,36.688 C291.327,43.009 298.670,48.465 307.921,48.465 C317.134,48.465 324.452,43.057 323.476,36.768 C324.714,36.063 325.489,34.744 325.489,33.268 " />
  <path fill-rule="evenodd" fill="rgb(49, 231, 139)"
    d="M365.248,37.547 L368.424,37.547 L368.424,29.606 L365.248,29.606 L365.248,37.547 ZM357.306,37.547 L360.483,37.547 L360.483,29.606 L357.306,29.606 L357.306,37.547 ZM373.189,39.624 L373.189,24.841 L350.953,24.841 L350.953,43.901 L357.306,43.901 L357.306,48.591 L361.372,43.901 L368.964,43.901 L373.189,39.624 ZM368.277,48.666 L362.060,48.666 L357.921,53.431 L354.129,53.431 L354.129,48.666 L346.187,48.666 L346.187,27.191 L348.252,21.664 L376.366,21.664 L376.366,40.999 L368.277,48.666 Z" />
  <path fill-rule="evenodd" fill="rgb(49, 231, 139)"
    d="M94.946,32.575 L105.685,20.096 L103.140,20.096 L93.815,30.931 L86.368,20.096 L77.778,20.096 L89.040,36.481 L77.778,49.567 L80.323,49.567 L90.170,38.124 L98.035,49.567 L106.625,49.567 L94.945,32.575 L94.946,32.575 ZM91.460,36.625 L90.319,34.994 L81.240,22.011 L85.149,22.011 L92.476,32.488 L93.617,34.120 L103.141,47.739 L99.232,47.739 L91.460,36.626 L91.460,36.625 Z" />
  <path fill-rule="evenodd" fill="rgb(49, 231, 139)"
    d="M216.371,20.094 L190.128,20.094 C189.230,20.094 188.500,20.822 188.500,21.722 L188.500,47.964 C188.500,48.864 189.230,49.594 190.128,49.594 L204.256,49.594 L204.256,38.169 L200.412,38.169 L200.412,33.717 L204.256,33.717 L204.256,30.433 C204.256,26.623 206.583,24.548 209.982,24.548 C211.611,24.548 213.009,24.670 213.417,24.723 L213.417,28.705 L211.059,28.705 C209.210,28.705 208.854,29.584 208.854,30.873 L208.854,33.715 L213.264,33.715 L212.687,38.168 L208.853,38.168 L208.853,49.592 L216.370,49.592 C217.270,49.592 218.000,48.862 218.000,47.964 L218.000,21.721 C217.999,20.822 217.270,20.094 216.371,20.094 Z" />
  <path fill-rule="evenodd" fill="rgb(49, 231, 139)"
    d="M268.108,45.533 C267.324,47.072 266.072,48.323 264.533,49.108 C262.782,50.000 260.491,50.000 255.909,50.000 L252.091,50.000 C247.509,50.000 245.217,50.000 243.467,49.108 C241.928,48.323 240.676,47.072 239.892,45.533 C239.000,43.782 239.000,41.491 239.000,36.909 L239.000,33.091 C239.000,28.508 239.000,26.217 239.892,24.467 C240.676,22.928 241.928,21.676 243.467,20.891 C245.217,20.000 247.509,20.000 252.091,20.000 L255.909,20.000 C260.491,20.000 262.782,20.000 264.533,20.891 C266.072,21.676 267.324,22.928 268.108,24.467 C269.000,26.217 269.000,28.508 269.000,33.091 L269.000,36.909 C269.000,41.491 269.000,43.782 268.108,45.533 ZM266.273,33.091 C266.273,30.755 266.271,29.166 266.170,27.939 C266.073,26.743 265.895,26.132 265.678,25.705 C265.155,24.679 264.321,23.844 263.294,23.322 C262.868,23.104 262.256,22.927 261.061,22.829 C259.833,22.729 258.245,22.727 255.909,22.727 L252.091,22.727 C249.755,22.727 248.167,22.729 246.939,22.829 C245.743,22.927 245.132,23.104 244.705,23.322 C243.679,23.844 242.845,24.679 242.322,25.705 C242.104,26.132 241.927,26.743 241.830,27.939 C241.729,29.166 241.727,30.755 241.727,33.091 L241.727,36.909 C241.727,39.245 241.729,40.833 241.830,42.060 C241.927,43.256 242.104,43.868 242.322,44.294 C242.845,45.321 243.679,46.155 244.705,46.678 C245.132,46.895 245.743,47.072 246.939,47.170 C248.167,47.270 249.755,47.272 252.091,47.272 L255.909,47.272 C258.245,47.272 259.833,47.270 261.061,47.170 C262.256,47.072 262.868,46.895 263.294,46.678 C264.321,46.155 265.155,45.321 265.678,44.294 C265.895,43.868 266.073,43.256 266.170,42.060 C266.271,40.833 266.273,39.245 266.273,36.909 L266.273,33.091 ZM262.182,28.181 C261.429,28.181 260.818,27.571 260.818,26.818 C260.818,26.065 261.429,25.454 262.182,25.454 C262.935,25.454 263.545,26.065 263.545,26.818 C263.545,27.571 262.935,28.181 262.182,28.181 ZM254.000,43.181 C249.481,43.181 245.818,39.518 245.818,35.000 C245.818,30.481 249.481,26.818 254.000,26.818 C258.519,26.818 262.182,30.481 262.182,35.000 C262.182,39.518 258.519,43.181 254.000,43.181 ZM254.000,29.545 C250.987,29.545 248.545,31.987 248.545,35.000 C248.545,38.012 250.987,40.454 254.000,40.454 C257.012,40.454 259.455,38.012 259.455,35.000 C259.455,31.987 257.012,29.545 254.000,29.545 Z" />
  <path fill-rule="evenodd" fill="rgb(49, 231, 139)"
    d="M43.512,18.305 C45.228,18.278 46.934,18.294 48.637,18.278 C48.741,20.285 49.462,22.329 50.931,23.748 C52.397,25.202 54.470,25.868 56.488,26.093 L56.488,31.372 C54.597,31.310 52.698,30.916 50.982,30.102 C50.235,29.764 49.539,29.328 48.858,28.883 C48.849,32.713 48.873,36.539 48.833,40.354 C48.731,42.187 48.126,44.010 47.061,45.520 C45.346,48.035 42.370,49.674 39.313,49.725 C37.439,49.832 35.566,49.321 33.968,48.379 C31.321,46.818 29.457,43.959 29.186,40.892 C29.155,40.236 29.144,39.581 29.170,38.941 C29.406,36.447 30.640,34.060 32.555,32.437 C34.726,30.546 37.767,29.646 40.614,30.179 C40.641,32.121 40.563,34.060 40.563,36.002 C39.262,35.582 37.742,35.700 36.606,36.489 C35.776,37.027 35.146,37.851 34.818,38.783 C34.546,39.448 34.624,40.186 34.640,40.892 C34.951,43.043 37.020,44.851 39.228,44.655 C40.692,44.640 42.095,43.790 42.858,42.546 C43.104,42.111 43.381,41.665 43.395,41.153 C43.524,38.808 43.473,36.473 43.489,34.128 C43.500,28.844 43.473,23.574 43.513,18.306 L43.512,18.305 Z" />
  <path fill-rule="evenodd" fill="rgb(49, 231, 139)"
    d="M159.529,20.175 C153.580,19.770 140.331,19.772 134.391,20.175 C127.959,20.613 127.201,24.487 127.153,34.685 C127.201,44.865 127.952,48.755 134.391,49.195 C140.333,49.598 153.580,49.600 159.529,49.195 C165.961,48.757 166.718,44.883 166.766,34.685 C166.718,24.505 165.967,20.615 159.529,20.175 ZM142.008,41.268 L142.008,28.101 L155.212,34.673 L142.008,41.268 Z" />
  <path fill-rule="evenodd" stroke="rgb(49, 231, 139)" stroke-width="2px" stroke-linecap="butt"
    stroke-linejoin="miter" fill="none"
    d="M396.370,27.346 L396.370,42.431 L398.380,44.440 L398.380,57.561 C398.380,62.596 394.292,66.696 389.245,66.696 L11.887,66.696 C6.851,66.696 2.752,62.596 2.752,57.561 L2.752,44.395 L4.716,42.431 L4.716,27.346 L2.752,25.383 L2.752,11.886 C2.752,6.839 6.851,2.751 11.887,2.751 L389.245,2.751 C394.292,2.751 398.380,6.839 398.380,11.886 L398.380,25.338 L396.370,27.346 Z" />
</svg>