<?xml version="1.0" encoding="utf-8"?>
<!-- Generator: Adobe Illustrator 25.0.0, SVG Export Plug-In . SVG Version: 6.00 Build 0)  -->
<svg version="1.1" id="Layer_1" xmlns="http://www.w3.org/2000/svg" xmlns:xlink="http://www.w3.org/1999/xlink" x="0px" y="0px"
	 viewBox="0 0 1417.8 192" style="enable-background:new 0 0 1417.8 192;" xml:space="preserve">
<style type="text/css">
	.st0{fill:#FFFFFF;}
</style>
<path class="st0" d="M0,44.3v103.4C0,172.2,19.9,192,44.3,192h118.1v-88.6h-44.3v44.3H44.3V44.3h118.1V0H44.3C19.8,0,0,19.9,0,44.3
	L0,44.3z"/>
<polygon class="st0" points="516.9,147.7 502.1,147.7 472.6,0 384,0 384,192 428.3,192 428.3,44.3 443.1,44.3 472.6,192 546.5,192 
	576,44.3 590.8,44.3 590.8,192 635.1,192 635.1,0 546.5,0 "/>
<polygon class="st0" points="1373.5,147.7 1358.8,147.7 1329.2,0 1240.6,0 1240.6,192 1284.9,192 1284.9,44.3 1299.7,44.3 
	1329.2,192 1417.8,192 1417.8,0 1373.5,0 "/>
<path class="st0" d="M1462.8,34.6h17.4v-5.7h-17.4V15.4h17.4V9.7h-17.4c-3.1,0-5.7,2.6-5.7,5.7v13.5
	C1457.1,32,1459.7,34.6,1462.8,34.6z"/>
<path class="st0" d="M708.9,118.2h88.6V73.9H664.6v73.9c0,24.5,19.9,44.3,44.3,44.3h118.2v-44.3H708.9L708.9,118.2L708.9,118.2z"/>
<rect x="664.6" y="0" class="st0" width="162.5" height="44.3"/>
<polygon class="st0" points="236.3,0 192,192 236.3,192 265.8,44.3 280.6,44.3 304.6,147.7 265.8,147.7 265.8,192 354.5,192 
	310.1,0 "/>
<path class="st0" d="M1484,0h-30.8c-3.1,0-5.7,2.6-5.7,5.7v32.8c0,3.1,2.6,5.7,5.7,5.7h30.8c3.1,0,5.7-2.6,5.7-5.7V5.8
	C1489.7,2.6,1487.1,0,1484,0z M1484,38.6h-30.8V5.8h30.8V38.6z"/>
<path class="st0" d="M856.6,44.3v103.4c0,24.5,19.9,44.3,44.3,44.3h118.2v-44.3H900.9V44.3h118.2V0H900.9
	C876.5,0,856.6,19.9,856.6,44.3z"/>
<polygon class="st0" points="1092.9,0 1048.6,192 1092.9,192 1122.5,44.3 1137.2,44.3 1161.2,147.7 1122.5,147.7 1122.5,192 
	1211.1,192 1166.8,0 "/>
</svg>
