<?xml version="1.0" encoding="utf-8"?>
<!-- Generator: Adobe Illustrator 25.0.0, SVG Export Plug-In . SVG Version: 6.00 Build 0)  -->
<svg version="1.1" id="Layer_1" xmlns="http://www.w3.org/2000/svg"
  xmlns:xlink="http://www.w3.org/1999/xlink" x="0px" y="0px"
  viewBox="0 0 189.2 25.1" style="enable-background:new 0 0 189.2 25.1;" xml:space="preserve">
<style type="text/css">
	.st0{fill-rule:evenodd;clip-rule:evenodd;fill:#FFFFFF;}
</style>
<path class="st0" d="M5.6,0.1C6.1,0,6.6,0,7.2,0h14.1v5.6H7.9c-1.5,0-2.4,0.9-2.5,2.6v8.2c0,2.1,0.9,3.2,2.6,3.2h7.8V11h5.4v14.2
	H7.2c-0.5,0-1,0-1.6-0.1c-0.5-0.1-0.9-0.2-1.3-0.4c-0.4-0.2-0.8-0.4-1.2-0.7c-0.4-0.3-0.7-0.6-1-0.9c-0.3-0.3-0.7-0.7-0.9-1.1
	c-0.3-0.5-0.5-0.9-0.6-1.5c-0.1-0.5-0.3-1.1-0.3-1.6C0,18.2,0,17.5,0,16.9V8.2C0,7.6,0.1,7,0.2,6.4c0.1-0.5,0.2-1.1,0.3-1.6
	c0.1-0.5,0.3-1,0.6-1.4C1.3,2.9,1.7,2.6,2,2.2C2.6,1.5,3.4,1,4.2,0.7C4.7,0.4,5.1,0.2,5.6,0.1 M32.3,0l-6.9,25.1h5.4l5.2-19l5.1,19
	h5.5L39.6,0H32.3z M65.1,15.7L57.5,0H51v25.1h5.5V9.6l7.4,15.6h2.4l7.5-15.6v15.6h5.3V0h-6.5L65.1,15.7L65.1,15.7z M84.4,25.1h19.2
	v-5.6H89.8v-4.1h13.8V9.9H84.4V25.1L84.4,25.1z M84.4,5.6h19.3V0H84.4V5.6z M129.7,4.8c-0.2-0.5-0.4-1-0.7-1.4
	c-0.2-0.4-0.5-0.8-0.9-1.1c-0.3-0.3-0.7-0.7-1-0.9c-0.3-0.3-0.7-0.5-1.1-0.6c-0.4-0.2-0.9-0.4-1.4-0.5c-0.5-0.1-1-0.2-1.5-0.2h-7.2
	c-0.5,0-1,0-1.5,0.1c-0.5,0.1-1,0.3-1.4,0.5c-0.9,0.3-1.6,0.9-2.3,1.6c-0.3,0.4-0.6,0.7-0.8,1.1c-0.3,0.4-0.5,0.9-0.6,1.4
	c-0.2,0.5-0.3,1.1-0.4,1.6c-0.1,0.6-0.2,1.2-0.1,1.8v8.7c0,0.6,0,1.3,0.1,1.9c0.1,0.6,0.2,1.1,0.4,1.7c0.1,0.5,0.3,1,0.6,1.5
	c0.3,0.4,0.5,0.8,0.8,1.1c0.3,0.3,0.7,0.6,1.1,0.9c0.4,0.3,0.8,0.5,1.2,0.7c0.5,0.2,0.9,0.3,1.4,0.4c0.5,0.1,1,0.1,1.5,0.1h7.2
	c0.5,0,1,0,1.5-0.1c0.5-0.1,1-0.2,1.4-0.4c0.4-0.2,0.8-0.4,1.1-0.7c0.4-0.3,0.7-0.6,1-0.9c0.7-0.7,1.2-1.6,1.5-2.6
	c0.1-0.5,0.3-1.1,0.3-1.7c0.1-0.6,0.1-1.3,0.1-1.9v-1.4h-5.4v0.9c0,2.1-0.8,3.2-2.5,3.2h-5.4c-1.7,0-2.6-1.1-2.6-3.2V8.7
	c0-2.1,0.9-3.1,2.6-3.1h5.4c1.7,0,2.5,1,2.5,3.1v1.1h5.4V8.2c0-0.6,0-1.2-0.1-1.8C130,5.9,129.9,5.3,129.7,4.8 M140.9,0l-6.9,25.1
	h5.4l5.2-19l5.1,19h5.5l-7-25.1H140.9L140.9,0z M175.4,15.6L165,0h-5.5v25.1h5.4V9.6l10.4,15.6h5.6V0h-5.5V15.6z M189.2,0
	c0.7,0,1.3,0.6,1.3,1.3v4.1c0,0.7-0.6,1.3-1.3,1.3h-3.7c-0.7,0-1.3-0.6-1.3-1.3V1.3c0-0.7,0.6-1.3,1.3-1.3L189.2,0 M189.3,5.9
	c0.2,0,0.4-0.2,0.4-0.4l0-4.3c0-0.2-0.2-0.4-0.4-0.4h-3.9c-0.2,0-0.4,0.2-0.4,0.4v4.4c0,0.2,0.2,0.4,0.4,0.4L189.3,5.9 M188.8,1.9
	c0-0.1-0.1-0.1-0.1-0.2c0-0.1-0.1-0.1-0.2-0.1c-0.1,0-0.1-0.1-0.2-0.1c-0.1,0-0.1-0.1-0.2-0.1c-0.1,0-0.2,0-0.2,0h-1.1
	c-0.1,0-0.2,0-0.2,0c-0.1,0-0.2,0-0.2,0.1c-0.1,0-0.3,0.1-0.3,0.2c0,0.1-0.1,0.1-0.1,0.2c0,0.1-0.1,0.1-0.1,0.2c0,0.1,0,0.2-0.1,0.3
	c0,0.1,0,0.2,0,0.3V4c0,0.1,0,0.2,0,0.3c0,0.1,0,0.2,0.1,0.3c0,0.1,0.1,0.2,0.1,0.2c0,0.1,0.1,0.1,0.1,0.2c0.1,0,0.1,0.1,0.2,0.1
	l0.2,0.1c0.1,0,0.1,0,0.2,0.1c0.1,0,0.2,0,0.2,0h1.1c0.1,0,0.2,0,0.2,0c0.1,0,0.1,0,0.2-0.1l0.2-0.1c0.1,0,0.1-0.1,0.2-0.1
	c0.1-0.1,0.2-0.3,0.2-0.4c0-0.1,0-0.2,0.1-0.3c0-0.1,0-0.2,0-0.3V3.8h-0.8v0.1c0,0.3-0.1,0.5-0.4,0.5h-0.8c-0.3,0-0.4-0.2-0.4-0.5
	V2.7c0-0.3,0.1-0.5,0.4-0.5h0.8c0.3,0,0.4,0.2,0.4,0.5v0.2h0.8V2.6c0-0.1,0-0.2,0-0.3c0-0.1,0-0.2-0.1-0.3
	C188.9,2,188.9,1.9,188.8,1.9"/>
</svg>