<svg xmlns="http://www.w3.org/2000/svg" xmlns:xlink="http://www.w3.org/1999/xlink" viewBox="0 0 1380.22 224.69"><defs><style>.cls-1{isolation:isolate;}.cls-2{clip-path:url(#clip-path);}.cls-3{fill:none;}.cls-4{fill:#fff;}.cls-5{clip-path:url(#clip-path-2);}.cls-6{clip-path:url(#clip-path-3);}.cls-7{fill:#31e78b;}.cls-8{mask:url(#mask);}.cls-9{clip-path:url(#clip-path-4);}.cls-10{fill:url(#linear-gradient);}</style><clipPath id="clip-path"><rect class="cls-3" x="170.45" y="170.2" width="1038.31" height="54.48"/></clipPath><clipPath id="clip-path-2" transform="translate(0 0)"><rect class="cls-3" width="1380.22" height="224.69"/></clipPath><clipPath id="clip-path-3" transform="translate(0 0)"><rect class="cls-3" width="1380.22" height="224.69"/></clipPath><mask id="mask" x="170.45" y="170.2" width="1038.33" height="54.48" maskUnits="userSpaceOnUse"><g transform="translate(0 0)"><rect x="170.45" y="170.21" width="1038.31" height="54.48"/><g class="cls-1"><g class="cls-2"><path class="cls-4" d="M233.06,200.5H404.82v-5.13H233.06Zm245.64,0h175v-5.13h-175Zm244.65,0h175v-5.13h-175Zm251,0h171.36v-5.13H974.39Zm-784-30.3-19.9,54.49h6.16l4.33-12.32,1.78-5.05h-.05l10.18-28.78,10,28.78h0l6.05,17.37h6.15L195.21,170.2Zm238.27,5.21h14.43c6.31,0,10.78,3.36,10.78,10s-4.47,9.95-10.78,9.95H428.62Zm-5.77-5.21v54.49h5.77V200.52h13l12.32,24.17h6.77L447.85,200c7-1.45,11.77-6.67,11.77-14.61,0-9.43-6.61-15.16-16-15.16Zm248.9,0v54.49h33.59v-5.2h-27.8V199.82h23.7v-5.2h-23.7v-19.2h27.8v-5.2H671.75Zm278.85,0v43.54L921.88,170.2h-5.47v54.49h5.78V181l28.72,43.69h5.48V170.2H950.6Zm233.48,0-19.9,54.49h6.14l4.33-12.32h0l1.79-5.05h-.08l10.17-28.78v.05l0-.05,10,28.78,6.05,17.37h6.11l-19.84-54.49Z"/></g></g></g></mask><clipPath id="clip-path-4" transform="translate(0 0)"><rect class="cls-3" x="170.45" y="170.2" width="1038.31" height="54.48"/></clipPath><linearGradient id="linear-gradient" x1="-7.99" y1="-256.85" x2="-6.99" y2="-256.85" gradientTransform="translate(8472.04 266886.15) scale(1038.31)" gradientUnits="userSpaceOnUse"><stop offset="0" stop-color="#fff"/><stop offset="1" stop-color="#31e78b"/></linearGradient></defs><g id="Layer_2" data-name="Layer 2"><g id="Layer_1-2" data-name="Layer 1"><g class="cls-5"><g class="cls-6"><path class="cls-4" d="M1380.22,9.72a8.3,8.3,0,0,1-2.52,6.11,8.53,8.53,0,0,1-12.13,0,8.37,8.37,0,0,1-2.51-6.11,8.4,8.4,0,0,1,2.51-6.1,8.49,8.49,0,0,1,12.13,0,8.34,8.34,0,0,1,2.52,6.1m-1.88,0a6.6,6.6,0,0,0-2-4.78,6.54,6.54,0,0,0-9.45,0,6.59,6.59,0,0,0-2,4.78,6.6,6.6,0,0,0,2,4.79,6.58,6.58,0,0,0,9.45,0,6.61,6.61,0,0,0,2-4.79m-1.87,4.1h-2.69l-2.59-3.15h-.85v3.15h-2.1V5.23h3.25a11,11,0,0,1,1.44.07,3.27,3.27,0,0,1,1.08.36,2.07,2.07,0,0,1,.85.8,2.28,2.28,0,0,1,.28,1.17,2.34,2.34,0,0,1-.52,1.55,3.2,3.2,0,0,1-1.38.94Zm-3.67-6a1,1,0,0,0-.11-.5.74.74,0,0,0-.38-.36,1.36,1.36,0,0,0-.58-.17,5.39,5.39,0,0,0-.72,0h-.67V9.15h.51a7.17,7.17,0,0,0,.9-.07,1.56,1.56,0,0,0,.61-.26,1.12,1.12,0,0,0,.33-.42,1.36,1.36,0,0,0,.11-.61" transform="translate(0 0)"/><path class="cls-7" d="M1344.59,0H1252a8.24,8.24,0,0,0-8.22,8.27v93.3a8.24,8.24,0,0,0,8.22,8.27h92.63a8.23,8.23,0,0,0,8.21-8.27V8.27A8.23,8.23,0,0,0,1344.59,0m-27.23,96.07H1278c-13.08,0-22.31-6.39-25.44-18.93a34.52,34.52,0,0,1-1-8.29v-1h26.28v1.73a16,16,0,0,0,.42,3.84c1,4,3.63,8,12.79,8h14c9.68,0,13.65-1.53,13.65-5.87,0-15.52-67.37-6.36-67.37-38.46,0-15.63,15.41-23.28,26-23.28h39.47c15.41,0,25.42,7.32,27.7,21.12a35.16,35.16,0,0,1,.43,5.71V42h-26.74V40.73A12.14,12.14,0,0,0,1317,35.1c-2.16-4.11-6.57-6.65-15.39-6.65h-11.56c-10.74,0-12.38,6.12-12.38,8.12,0,14.23,67.49,3.77,67.49,38.34,0,11.87-10.28,21.16-27.78,21.16" transform="translate(0 0)"/><g class="cls-8"><g class="cls-9"><g class="cls-9"><rect class="cls-10" x="170.45" y="170.2" width="1038.31" height="54.48"/></g></g></g><path class="cls-4" d="M843.84,0V109.83H798.23l-58.6-75.19v75.19h-35V68.63L709,66.57V40.83l-4.43-2.06V0h45.94l58.29,74V0h35ZM442.92,0V26.53H487.7V38.77l4.43,2.06V66.57l-4.43,2.06v41.2h35.05V26.53h44.78V0H442.92Zm193.8,24.2,3.39,2.33h52.95V0H579V38.77l4.43,2.06V66.57L579,68.63v41.2h114V83.29h-79V64h64.51V41.42H614.08V24.2Zm596.74,85.63h-39.71l-23.66-32.17h-35.67v32.17h-35V0h35V.05l56.39.1c15,0,40.34,7.07,40.34,38.91,0,13.49-5,28.88-22.58,35.47Zm-39.84-66.21c0-8.47-4.36-16.94-19.31-16.94h-39.89V59.62h39.89c13.86,0,19.31-7.07,19.31-16M1008.91,24.2h22.62l3.41,2.33h53V0h-114V109.83h114V83.29h-79V64h64.48V41.41h-64.48V24.19ZM280.68,21.93V88.05A21.85,21.85,0,0,1,258.91,110h-91A21.84,21.84,0,0,1,146.1,88.05V68.62l4.41-2.07V40.81l-4.41-2.06V21.93A21.84,21.84,0,0,1,167.86,0h91a21.84,21.84,0,0,1,21.77,21.93M250,40.81l-4.41-2.06v-5a10.93,10.93,0,0,0-10.88-11H192.1a10.93,10.93,0,0,0-10.88,11V76.28a10.93,10.93,0,0,0,10.88,11h42.57a10.93,10.93,0,0,0,10.88-11V68.63L250,66.57V40.81ZM0,21.94v66a21.86,21.86,0,0,0,21.75,21.93l91,.1A21.87,21.87,0,0,0,134.6,88V68.63h-35v7.63a10.92,10.92,0,0,1-10.88,11H46a10.92,10.92,0,0,1-10.89-11V33.7A10.93,10.93,0,0,1,46,22.73H88.67a10.92,10.92,0,0,1,10.88,11v5H134.6V21.91A21.86,21.86,0,0,0,112.81,0h-91A21.86,21.86,0,0,0,0,21.94M962.35,56.65c0,22.91-16.52,53.19-61.22,53.19H855.35V83.31h39.86c16.67,0,31.93-8.16,31.93-26.68s-10.9-30-29.12-30H855.35V.07l52.48.1c45.18.14,54.52,35.29,54.52,56.48M396.38,0V74L338.09,0H292.16V38.75l4.42,2.06V66.55l-4.42,2.07v41.19h35V34.66l58.61,75.18h45.6V0h-35ZM915,53.69,897.52,43.5V63.88Z" transform="translate(0 0)"/></g></g></g></g></svg>