<svg
  xmlns="http://www.w3.org/2000/svg"
  xmlns:xlink="http://www.w3.org/1999/xlink"
  width="337.5px" height="40.5px">
  <path fill-rule="evenodd" stroke="rgb(255, 255, 255)" stroke-width="1px" stroke-linecap="butt"
    stroke-linejoin="miter" fill="none"
    d="M334.749,12.333 L334.749,27.287 L335.675,28.214 L335.675,34.263 C335.675,36.585 333.791,38.475 331.463,38.475 L5.816,38.475 C3.494,38.475 1.604,36.585 1.604,34.263 L1.604,28.193 L2.510,27.287 L2.510,12.333 L1.604,11.427 L1.604,5.204 C1.604,2.877 3.494,0.992 5.816,0.992 L331.463,0.992 C333.791,0.992 335.675,2.877 335.675,5.204 L335.675,11.406 L334.749,12.333 Z" />
  <path fill-rule="evenodd" opacity="0.11" fill="rgb(255, 255, 255)"
    d="M334.749,12.333 L334.749,27.287 L335.675,28.214 L335.675,34.263 C335.675,36.585 333.791,38.475 331.463,38.475 L5.816,38.475 C3.494,38.475 1.604,36.585 1.604,34.263 L1.604,28.193 L2.510,27.287 L2.510,12.333 L1.604,11.427 L1.604,5.204 C1.604,2.877 3.494,0.992 5.816,0.992 L331.463,0.992 C333.791,0.992 335.675,2.877 335.675,5.204 L335.675,11.406 L334.749,12.333 Z" />
  <path fill-rule="evenodd" stroke="rgb(255, 255, 255)" stroke-width="1px" stroke-linecap="butt"
    stroke-linejoin="miter" fill="none"
    d="M20.842,25.677 C21.401,24.358 22.708,23.433 24.231,23.433 L29.751,23.433 C31.273,23.433 32.580,24.358 33.140,25.677 M30.671,16.533 C30.671,18.566 29.023,20.214 26.991,20.214 C24.958,20.214 23.311,18.566 23.311,16.533 C23.311,14.501 24.958,12.854 26.991,12.854 C29.023,12.854 30.671,14.501 30.671,16.533 ZM36.191,18.834 C36.191,23.915 32.072,28.033 26.991,28.033 C21.910,28.033 17.790,23.915 17.790,18.834 C17.790,13.752 21.910,9.633 26.991,9.633 C32.072,9.633 36.191,13.752 36.191,18.834 Z" />
</svg>