<svg
  xmlns="http://www.w3.org/2000/svg"
  xmlns:xlink="http://www.w3.org/1999/xlink"
  width="33px" height="29px">
  <path fill-rule="evenodd" fill="rgb(49, 231, 139)"
    d="M31.576,11.486 L31.576,18.197 L32.470,19.092 L32.470,24.929 C32.470,27.169 30.651,28.993 28.406,28.993 L4.797,28.993 C2.556,28.993 0.732,27.169 0.732,24.929 L0.732,19.071 L1.606,18.197 L1.606,11.486 L0.732,10.613 L0.732,4.608 C0.732,2.362 2.556,0.543 4.797,0.543 L28.406,0.543 C30.651,0.543 32.470,2.362 32.470,4.608 L32.470,10.592 L31.576,11.486 Z" />
  <path fill-rule="evenodd" fill="rgb(13, 18, 28)"
    d="M10.500,7.000 L23.500,7.000 C24.328,7.000 25.000,7.671 25.000,8.500 C25.000,9.328 24.328,10.000 23.500,10.000 L10.500,10.000 C9.672,10.000 9.000,9.328 9.000,8.500 C9.000,7.671 9.672,7.000 10.500,7.000 Z" />
  <path fill-rule="evenodd" fill="rgb(13, 18, 28)"
    d="M10.500,13.000 L23.500,13.000 C24.328,13.000 25.000,13.672 25.000,14.500 C25.000,15.328 24.328,16.000 23.500,16.000 L10.500,16.000 C9.672,16.000 9.000,15.328 9.000,14.500 C9.000,13.672 9.672,13.000 10.500,13.000 Z" />
  <path fill-rule="evenodd" fill="rgb(13, 18, 28)"
    d="M10.500,19.000 L23.500,19.000 C24.328,19.000 25.000,19.672 25.000,20.500 C25.000,21.328 24.328,22.000 23.500,22.000 L10.500,22.000 C9.672,22.000 9.000,21.328 9.000,20.500 C9.000,19.672 9.672,19.000 10.500,19.000 Z" />
</svg>