<svg
  xmlns="http://www.w3.org/2000/svg"
  xmlns:xlink="http://www.w3.org/1999/xlink"
  width="962px" height="90px">
  <path fill-rule="evenodd" stroke="rgb(255, 255, 255)" stroke-width="2px" stroke-linecap="butt"
    stroke-linejoin="miter" fill="none"
    d="M955.587,34.452 L955.587,54.360 L958.240,57.012 L958.240,74.328 C958.240,80.973 952.845,86.383 946.184,86.383 L14.048,86.383 C7.402,86.383 1.992,80.973 1.992,74.328 L1.992,56.951 L4.584,54.360 L4.584,34.452 L1.992,31.860 L1.992,14.047 C1.992,7.386 7.402,1.991 14.048,1.991 L946.184,1.991 C952.845,1.991 958.240,7.386 958.240,14.047 L958.240,31.800 L955.587,34.452 Z" />
  <path fill-rule="evenodd" opacity="0.259" fill="rgb(255, 255, 255)"
    d="M955.587,34.452 L955.587,54.360 L958.240,57.012 L958.240,74.328 C958.240,80.973 952.845,86.383 946.184,86.383 L14.048,86.383 C7.402,86.383 1.992,80.973 1.992,74.328 L1.992,56.951 L4.584,54.360 L4.584,34.452 L1.992,31.860 L1.992,14.047 C1.992,7.386 7.402,1.991 14.048,1.991 L946.184,1.991 C952.845,1.991 958.240,7.386 958.240,14.047 L958.240,31.800 L955.587,34.452 Z" />
  <path fill-rule="evenodd" stroke="rgb(207, 208, 210)" stroke-width="2px" stroke-linecap="butt"
    stroke-linejoin="miter" fill="none"
    d="M56.080,57.176 C57.118,54.731 59.542,53.015 62.366,53.015 L72.604,53.015 C75.428,53.015 77.851,54.731 78.889,57.176 M74.310,40.218 C74.310,43.988 71.254,47.044 67.485,47.044 C63.715,47.044 60.660,43.988 60.660,40.218 C60.660,36.448 63.715,33.393 67.485,33.393 C71.254,33.393 74.310,36.448 74.310,40.218 ZM84.548,44.484 C84.548,53.908 76.908,61.547 67.485,61.547 C58.061,61.547 50.421,53.908 50.421,44.484 C50.421,35.060 58.061,27.420 67.485,27.420 C76.908,27.420 84.548,35.060 84.548,44.484 Z" />
</svg>